<svg width="58" height="58" viewBox="0 0 58 58" fill="none" xmlns="http://www.w3.org/2000/svg">
<g clip-path="url(#clip0_404_261)" filter="url(#filter0_d_404_261)">
<path d="M39.8695 2.48066C36.5828 0.891406 32.8955 0 29 0C25.1045 0 21.4172 0.891406 18.1305 2.48066L15.9565 25L18.1305 47.5193C21.4172 49.1086 25.1045 50 29 50C32.8955 50 36.5828 49.1086 39.8695 47.5193L42.0435 25L39.8695 2.48066Z" fill="#D80027"/>
<path d="M28.9998 16.3044L31.158 22.9469H38.1431L32.4924 27.0527L34.6507 33.6956L28.9998 29.59L23.3489 33.6956L25.5076 27.0527L19.8568 22.9469H26.8415L28.9998 16.3044Z" fill="#FFDA44"/>
<path d="M18.1305 2.48157C9.76816 6.52512 4 15.0885 4 25C4 34.9115 9.76816 43.4749 18.1305 47.5185V2.48157Z" fill="#496E2D"/>
<path d="M39.8695 2.48157V47.5185C48.2318 43.4749 54 34.9114 54 25C54 15.0886 48.2318 6.52512 39.8695 2.48157Z" fill="#FFDA44"/>
</g>
<defs>
<filter id="filter0_d_404_261" x="0" y="0" width="58" height="58" filterUnits="userSpaceOnUse" color-interpolation-filters="sRGB">
<feFlood flood-opacity="0" result="BackgroundImageFix"/>
<feColorMatrix in="SourceAlpha" type="matrix" values="0 0 0 0 0 0 0 0 0 0 0 0 0 0 0 0 0 0 127 0" result="hardAlpha"/>
<feOffset dy="4"/>
<feGaussianBlur stdDeviation="2"/>
<feComposite in2="hardAlpha" operator="out"/>
<feColorMatrix type="matrix" values="0 0 0 0 0 0 0 0 0 0 0 0 0 0 0 0 0 0 0.25 0"/>
<feBlend mode="normal" in2="BackgroundImageFix" result="effect1_dropShadow_404_261"/>
<feBlend mode="normal" in="SourceGraphic" in2="effect1_dropShadow_404_261" result="shape"/>
</filter>
<clipPath id="clip0_404_261">
<rect width="50" height="50" fill="white" transform="translate(4)"/>
</clipPath>
</defs>
</svg>
